<svg width="299" height="113" viewBox="0 0 299 113" fill="none" xmlns="http://www.w3.org/2000/svg">
<path d="M15.9844 89H7.3125V38.2812H15.9844V89ZM6.60938 24.8281C6.60938 23.4219 7.03125 22.2344 7.875 21.2656C8.75 20.2969 10.0312 19.8125 11.7188 19.8125C13.4062 19.8125 14.6875 20.2969 15.5625 21.2656C16.4375 22.2344 16.875 23.4219 16.875 24.8281C16.875 26.2344 16.4375 27.4062 15.5625 28.3438C14.6875 29.2812 13.4062 29.75 11.7188 29.75C10.0312 29.75 8.75 29.2812 7.875 28.3438C7.03125 27.4062 6.60938 26.2344 6.60938 24.8281ZM41.6719 26V38.2812H51.1406V44.9844H41.6719V76.4375C41.6719 78.4688 42.0938 80 42.9375 81.0312C43.7812 82.0312 45.2188 82.5312 47.25 82.5312C48.25 82.5312 49.625 82.3438 51.375 81.9688V89C49.0938 89.625 46.875 89.9375 44.7188 89.9375C40.8438 89.9375 37.9219 88.7656 35.9531 86.4219C33.9844 84.0781 33 80.75 33 76.4375V44.9844H23.7656V38.2812H33V26H41.6719ZM87.7031 61.3906H71.6719V89H62.625V20.75H85.2188C92.9062 20.75 98.8125 22.5 102.938 26C107.094 29.5 109.172 34.5938 109.172 41.2812C109.172 45.5312 108.016 49.2344 105.703 52.3906C103.422 55.5469 100.234 57.9062 96.1406 59.4688L112.172 88.4375V89H102.516L87.7031 61.3906ZM71.6719 54.0312H85.5C89.9688 54.0312 93.5156 52.875 96.1406 50.5625C98.7969 48.25 100.125 45.1562 100.125 41.2812C100.125 37.0625 98.8594 33.8281 96.3281 31.5781C93.8281 29.3281 90.2031 28.1875 85.4531 28.1562H71.6719V54.0312ZM141.516 89.9375C134.641 89.9375 129.047 87.6875 124.734 83.1875C120.422 78.6562 118.266 72.6094 118.266 65.0469V63.4531C118.266 58.4219 119.219 53.9375 121.125 50C123.062 46.0312 125.75 42.9375 129.188 40.7188C132.656 38.4688 136.406 37.3438 140.438 37.3438C147.031 37.3438 152.156 39.5156 155.812 43.8594C159.469 48.2031 161.297 54.4219 161.297 62.5156V66.125H126.938C127.062 71.125 128.516 75.1719 131.297 78.2656C134.109 81.3281 137.672 82.8594 141.984 82.8594C145.047 82.8594 147.641 82.2344 149.766 80.9844C151.891 79.7344 153.75 78.0781 155.344 76.0156L160.641 80.1406C156.391 86.6719 150.016 89.9375 141.516 89.9375ZM140.438 44.4688C136.938 44.4688 134 45.75 131.625 48.3125C129.25 50.8438 127.781 54.4062 127.219 59H152.625V58.3438C152.375 53.9375 151.188 50.5312 149.062 48.125C146.938 45.6875 144.062 44.4688 140.438 44.4688ZM202.688 89C202.188 88 201.781 86.2188 201.469 83.6562C197.438 87.8438 192.625 89.9375 187.031 89.9375C182.031 89.9375 177.922 88.5312 174.703 85.7188C171.516 82.875 169.922 79.2812 169.922 74.9375C169.922 69.6562 171.922 65.5625 175.922 62.6562C179.953 59.7188 185.609 58.25 192.891 58.25H201.328V54.2656C201.328 51.2344 200.422 48.8281 198.609 47.0469C196.797 45.2344 194.125 44.3281 190.594 44.3281C187.5 44.3281 184.906 45.1094 182.812 46.6719C180.719 48.2344 179.672 50.125 179.672 52.3438H170.953C170.953 49.8125 171.844 47.375 173.625 45.0312C175.438 42.6562 177.875 40.7812 180.938 39.4062C184.031 38.0312 187.422 37.3438 191.109 37.3438C196.953 37.3438 201.531 38.8125 204.844 41.75C208.156 44.6562 209.875 48.6719 210 53.7969V77.1406C210 81.7969 210.594 85.5 211.781 88.25V89H202.688ZM188.297 82.3906C191.016 82.3906 193.594 81.6875 196.031 80.2812C198.469 78.875 200.234 77.0469 201.328 74.7969V64.3906H194.531C183.906 64.3906 178.594 67.5 178.594 73.7188C178.594 76.4375 179.5 78.5625 181.312 80.0938C183.125 81.625 185.453 82.3906 188.297 82.3906ZM243.938 82.8594C247.031 82.8594 249.734 81.9219 252.047 80.0469C254.359 78.1719 255.641 75.8281 255.891 73.0156H264.094C263.938 75.9219 262.938 78.6875 261.094 81.3125C259.25 83.9375 256.781 86.0312 253.688 87.5938C250.625 89.1562 247.375 89.9375 243.938 89.9375C237.031 89.9375 231.531 87.6406 227.438 83.0469C223.375 78.4219 221.344 72.1094 221.344 64.1094V62.6562C221.344 57.7188 222.25 53.3281 224.062 49.4844C225.875 45.6406 228.469 42.6562 231.844 40.5312C235.25 38.4062 239.266 37.3438 243.891 37.3438C249.578 37.3438 254.297 39.0469 258.047 42.4531C261.828 45.8594 263.844 50.2812 264.094 55.7188H255.891C255.641 52.4375 254.391 49.75 252.141 47.6562C249.922 45.5312 247.172 44.4688 243.891 44.4688C239.484 44.4688 236.062 46.0625 233.625 49.25C231.219 52.4062 230.016 56.9844 230.016 62.9844V64.625C230.016 70.4688 231.219 74.9688 233.625 78.125C236.031 81.2812 239.469 82.8594 243.938 82.8594ZM285.609 26V38.2812H295.078V44.9844H285.609V76.4375C285.609 78.4688 286.031 80 286.875 81.0312C287.719 82.0312 289.156 82.5312 291.188 82.5312C292.188 82.5312 293.562 82.3438 295.312 81.9688V89C293.031 89.625 290.812 89.9375 288.656 89.9375C284.781 89.9375 281.859 88.7656 279.891 86.4219C277.922 84.0781 276.938 80.75 276.938 76.4375V44.9844H267.703V38.2812H276.938V26H285.609Z" fill="white"/>
<line x1="-2.18557e-07" y1="110.5" x2="299" y2="110.5" stroke="white" stroke-width="5"/>
<line x1="-2.18557e-07" y1="5.50003" x2="299" y2="5.5" stroke="white" stroke-width="5"/>
</svg>
